<?xml version="1.0" standalone="no"?>
<!DOCTYPE svg PUBLIC "-//W3C//DTD SVG 20010904//EN"
 "http://www.w3.org/TR/2001/REC-SVG-20010904/DTD/svg10.dtd">
<svg version="1.0" xmlns="http://www.w3.org/2000/svg"
 width="150.000000pt" height="150.000000pt" viewBox="0 0 150.000000 150.000000"
 preserveAspectRatio="xMidYMid meet">
<metadata>
Created by potrace 1.14, written by Peter Selinger 2001-2017
</metadata>
<g transform="translate(0.000000,150.000000) scale(0.100000,-0.100000)"
fill="#000000" stroke="none">
<path d="M676 1482 c-3 -5 -26 -7 -51 -5 -43 4 -45 3 -45 -21 0 -19 7 -27 25
-32 14 -3 30 -14 36 -23 8 -13 9 -10 5 11 -4 19 -1 31 12 40 19 13 37 38 28
38 -3 0 -7 -4 -10 -8z"/>
<path d="M810 1471 c6 -13 7 -22 0 -26 -5 -3 -8 -23 -7 -43 2 -34 0 -37 -24
-34 -15 1 -29 -3 -32 -11 -4 -10 2 -13 21 -9 20 4 24 2 19 -11 -4 -11 5 -20
29 -32 19 -9 34 -21 34 -27 0 -5 7 -8 15 -4 17 6 21 -9 5 -19 -5 -3 -10 -12
-10 -18 0 -8 3 -7 9 2 5 7 14 11 20 7 6 -4 23 0 38 8 l28 15 -27 1 c-15 0 -29
4 -32 9 -4 5 9 8 28 7 34 -3 34 -3 19 20 -8 13 -20 21 -25 18 -6 -4 -2 6 7 20
30 45 46 49 116 31 24 -6 25 -4 21 25 -5 37 -34 57 -52 35 -11 -13 -10 -14 5
-9 12 5 16 3 13 -6 -5 -17 -45 -23 -54 -8 -5 7 -2 8 7 3 10 -6 9 -3 -2 11 -9
10 -14 25 -11 33 4 11 -2 13 -28 8 -18 -4 -36 -7 -40 -7 -4 0 -10 -9 -13 -21
-9 -35 -42 -20 -42 19 0 32 -9 42 -18 20 -4 -10 -6 -10 -6 0 -1 6 -6 12 -11
12 -7 0 -7 -6 0 -19z m133 -70 c-6 -22 -39 -55 -56 -57 -7 0 -23 -2 -37 -3
-23 -2 -24 -3 -5 -11 18 -8 17 -9 -7 -9 -61 -2 -17 62 51 74 22 4 43 11 47 16
9 15 12 10 7 -10z"/>
<path d="M694 1469 c-3 -6 -2 -15 3 -20 5 -5 9 -1 10 11 2 22 -2 25 -13 9z"/>
<path d="M540 1450 c0 -5 5 -10 10 -10 6 0 10 5 10 10 0 6 -4 10 -10 10 -5 0
-10 -4 -10 -10z"/>
<path d="M746 1404 c-3 -7 3 -10 15 -7 26 7 32 19 9 19 -11 0 -22 -6 -24 -12z"/>
<path d="M690 1369 c0 -5 5 -7 10 -4 6 3 10 8 10 11 0 2 -4 4 -10 4 -5 0 -10
-5 -10 -11z"/>
<path d="M1141 1324 c0 -11 3 -14 6 -6 3 7 2 16 -1 19 -3 4 -6 -2 -5 -13z"/>
<path d="M1220 1306 c0 -31 6 -34 13 -6 3 11 1 23 -4 26 -5 3 -9 -6 -9 -20z"/>
<path d="M1177 1288 c-4 -12 -4 -24 -1 -27 6 -7 24 20 24 37 0 21 -17 13 -23
-10z"/>
<path d="M785 1290 c-4 -6 3 -10 14 -10 25 0 27 6 6 13 -8 4 -17 2 -20 -3z"/>
<path d="M1280 1250 c-13 -8 -12 -10 3 -10 9 0 17 5 17 10 0 12 -1 12 -20 0z"/>
<path d="M1217 1243 c-13 -13 -7 -21 13 -16 11 3 17 9 14 14 -6 11 -18 12 -27
2z"/>
<path d="M918 1232 c-10 -2 -18 -8 -18 -14 0 -5 6 -8 14 -5 8 3 17 1 19 -6 3
-8 8 -9 15 -2 14 13 -7 32 -30 27z"/>
<path d="M1290 1204 c0 -12 -6 -25 -12 -27 -10 -4 -10 -6 0 -6 7 -1 15 6 18
14 4 8 15 15 25 15 28 0 23 17 -6 22 -21 4 -25 1 -25 -18z"/>
<path d="M1165 1181 c-3 -6 1 -11 10 -11 12 0 15 -6 10 -20 -7 -23 -2 -26 14
-7 8 11 6 18 -8 31 -12 11 -21 14 -26 7z"/>
<path d="M1340 1175 c0 -8 -5 -15 -12 -15 -6 0 -8 -3 -5 -6 8 -8 37 14 37 27
0 5 -4 9 -10 9 -5 0 -10 -7 -10 -15z"/>
<path d="M1240 1170 c0 -5 5 -10 10 -10 6 0 10 5 10 10 0 6 -4 10 -10 10 -5 0
-10 -4 -10 -10z"/>
<path d="M1352 1149 c-6 -15 -18 -29 -27 -33 -25 -9 -63 4 -68 22 -3 13 -7 11
-17 -10 -7 -15 -17 -25 -21 -22 -5 3 -9 -2 -9 -10 0 -9 -4 -16 -9 -16 -5 0
-11 -6 -14 -12 -3 -9 9 -13 39 -13 28 0 38 2 29 8 -8 4 -15 17 -15 27 0 21 15
27 25 10 3 -5 17 -10 31 -10 13 0 24 -5 24 -11 0 -8 13 -9 39 -5 29 4 42 2 52
-11 13 -14 11 -16 -13 -11 -15 3 -33 1 -40 -3 -10 -6 -8 -9 7 -10 29 -2 49 2
58 11 9 8 -18 67 -46 105 -15 20 -16 20 -25 -6z"/>
<path d="M1052 1043 c1 -10 -2 -29 -6 -43 -8 -24 -8 -25 9 -5 16 20 16 19 11
-7 -3 -14 -2 -37 3 -50 8 -20 10 -16 12 25 5 89 4 92 -13 95 -11 2 -16 -3 -16
-15z"/>
<path d="M806 1037 c-14 -10 -17 -23 -14 -50 2 -20 -1 -39 -7 -41 -6 -3 -6 -5
0 -5 11 -1 11 -251 0 -279 -3 -8 0 -21 6 -28 9 -11 8 -14 -2 -14 -8 0 3 -12
24 -27 20 -14 37 -30 37 -35 0 -4 7 -8 15 -8 8 0 15 -8 15 -17 0 -14 -2 -15
-9 -5 -7 11 -9 11 -14 -2 -4 -10 -1 -16 8 -16 8 0 15 -4 15 -10 0 -5 -4 -10
-9 -10 -5 0 -12 -7 -15 -16 -3 -8 -2 -12 4 -9 6 3 10 -1 10 -10 0 -13 2 -13
14 -3 8 8 13 30 11 57 -1 24 4 56 11 70 17 32 10 78 -24 149 -18 39 -23 62
-19 89 4 20 1 45 -4 56 -15 26 -18 66 -7 73 5 3 8 25 7 49 -2 24 -7 41 -12 38
-5 -3 -12 0 -16 6 -5 8 -12 7 -25 -2z m44 -387 c0 -6 -11 -8 -27 -4 -40 10
-41 14 -5 14 18 0 32 -5 32 -10z"/>
<path d="M1391 982 c-1 -36 -26 -52 -83 -52 -18 0 -42 -10 -60 -25 -33 -28
-63 -32 -72 -10 -10 27 -36 18 -35 -12 l1 -28 8 25 c5 18 9 21 13 10 9 -24 5
-54 -8 -70 -7 -8 -15 -28 -19 -43 -4 -15 -11 -25 -16 -22 -6 4 -7 -7 -4 -27 4
-24 3 -29 -4 -19 -9 12 -12 9 -18 -15 -5 -16 -7 -34 -6 -41 1 -6 -2 -14 -8
-18 -5 -3 -10 -19 -10 -34 0 -15 -8 -43 -17 -62 -9 -19 -18 -41 -18 -49 -1 -8
-2 -28 -3 -43 -1 -16 -6 -26 -11 -22 -5 3 -16 -3 -23 -13 -7 -10 -20 -19 -28
-20 -8 0 -58 -17 -110 -37 -52 -20 -103 -34 -113 -31 -25 6 -47 -3 -47 -20 0
-17 -16 -18 -26 -3 -3 6 -1 15 6 19 9 5 -1 16 -31 36 -24 15 -66 48 -92 73
-49 47 -67 47 -61 -2 1 -12 3 -30 3 -40 1 -10 9 -21 19 -24 9 -4 23 -13 31
-21 11 -11 15 -11 22 0 5 7 9 8 9 2 0 -5 -6 -16 -13 -23 -10 -12 -9 -13 7 -7
17 6 17 5 5 -10 -12 -15 -11 -16 8 -10 13 4 31 2 40 -4 15 -9 15 -11 2 -6 -13
3 -18 -3 -21 -25 -5 -32 3 -37 22 -14 12 15 60 17 60 3 0 -5 11 -6 25 -2 39
10 30 -2 -25 -32 -27 -15 -50 -31 -50 -35 0 -12 38 -21 52 -13 9 6 9 3 -1 -9
-7 -9 -10 -18 -5 -18 40 -6 67 -3 71 8 3 7 9 13 14 13 5 0 3 -12 -5 -28 -8
-15 -12 -40 -9 -55 4 -23 10 -27 37 -27 21 0 35 -7 44 -21 9 -15 19 -18 35
-13 12 4 24 9 27 13 3 3 25 7 49 8 25 1 69 14 100 30 47 24 56 32 53 52 -2 24
-2 24 17 7 20 -18 22 -17 70 18 75 55 174 168 210 237 17 34 29 65 25 68 -4 3
-9 0 -11 -6 -7 -18 -33 -16 -56 4 -18 17 -19 17 -32 -1 -12 -16 -14 -15 -13
15 0 19 -3 45 -7 58 -6 17 -5 22 3 17 7 -4 12 -1 12 6 0 7 8 22 16 33 15 19
15 19 9 -7 -5 -18 -3 -28 4 -28 6 0 11 -9 11 -20 0 -11 5 -20 10 -20 6 0 10
-7 10 -15 0 -20 10 -19 26 3 12 16 13 15 22 -8 9 -21 11 -22 17 -8 4 9 3 22
-1 29 -4 7 -3 9 4 5 24 -14 60 230 45 306 l-6 31 -14 -27 c-8 -15 -11 -30 -9
-35 3 -5 -3 -20 -14 -34 -15 -18 -17 -27 -8 -30 8 -3 1 -9 -14 -16 -16 -6 -28
-13 -28 -17 0 -3 8 -3 17 0 10 4 14 4 10 -1 -13 -13 -68 -12 -60 1 4 6 8 14 8
19 0 4 15 16 33 27 17 11 32 23 33 27 0 5 2 18 3 31 2 12 -3 27 -11 33 -10 9
-13 7 -14 -7 0 -12 -3 -14 -6 -6 -4 10 -8 10 -19 1 -9 -7 -14 -8 -14 -1 0 6
-3 18 -7 28 -5 13 -3 16 10 11 9 -3 17 -3 17 2 0 5 15 12 34 15 20 4 37 14 40
24 7 20 -15 104 -26 103 -5 -1 -16 -1 -25 -2 -15 0 -15 -2 2 -9 11 -5 14 -9 8
-9 -7 -1 -16 -1 -20 -2 -5 0 -11 10 -15 23 -5 20 -6 18 -7 -10z m-175 -207 c1
-14 0 -23 -4 -21 -4 2 -8 -15 -9 -38 -2 -22 -7 -42 -13 -44 -5 -2 -10 -21 -10
-42 0 -36 -20 -70 -40 -70 -5 0 -8 13 -7 30 1 16 6 30 12 30 5 0 4 5 -3 12 -8
8 -8 17 -1 30 6 11 8 26 5 33 -3 10 0 12 11 8 12 -5 15 -2 11 9 -4 9 0 28 8
43 8 15 14 37 14 48 0 30 22 6 26 -28z m154 30 c0 -8 -15 -22 -32 -31 -42 -21
-64 -44 -82 -86 -9 -20 -15 -26 -15 -15 -2 44 28 87 74 107 25 11 45 24 45 30
0 5 2 10 5 10 3 0 5 -7 5 -15z m7 -41 c-3 -3 -12 -4 -19 -1 -8 3 -5 6 6 6 11
1 17 -2 13 -5z m-52 -34 c-3 -5 -1 -10 4 -10 6 0 11 -4 11 -10 0 -15 -26 -12
-39 3 -12 15 -5 27 16 27 8 0 11 -4 8 -10z m32 -32 c-3 -8 -6 -5 -6 6 -1 11 2
17 5 13 3 -3 4 -12 1 -19z m-52 -48 c-8 -9 -15 -23 -15 -31 1 -8 13 0 29 19
19 22 31 30 36 22 4 -6 13 -9 21 -6 8 3 14 1 14 -4 0 -5 12 -2 28 6 15 7 33
14 40 14 19 0 14 -20 -5 -21 -15 0 -15 -2 2 -8 19 -8 19 -9 -6 -21 -19 -9 -32
-9 -47 -1 -16 8 -21 7 -26 -4 -3 -8 -17 -15 -30 -15 -19 0 -27 -7 -32 -25 -3
-14 -10 -25 -14 -25 -14 0 -22 95 -11 127 1 1 8 0 16 -4 14 -5 14 -7 0 -23z
m-42 -42 c-8 -46 -13 -48 -13 -5 0 21 4 37 10 37 5 0 7 -14 3 -32z m-167 -35
c-11 -11 -17 4 -9 23 7 18 8 18 11 1 2 -10 1 -21 -2 -24z m319 17 c3 -6 -1 -7
-9 -4 -18 7 -21 14 -7 14 6 0 13 -4 16 -10z m39 1 c7 -10 -16 -71 -26 -71 -4
0 -12 9 -18 20 -9 16 -8 22 5 26 8 3 15 12 15 20 0 15 16 19 24 5z m-842 -263
c-8 -8 -9 -4 -5 13 4 13 8 18 11 10 2 -7 -1 -18 -6 -23z m188 -73 c-7 -8 -17
-15 -23 -15 -5 0 -2 9 8 20 21 23 35 19 15 -5z m9 -34 c11 -7 10 -11 -5 -20
-11 -6 -13 -11 -6 -11 21 0 3 -20 -19 -20 -21 0 -27 19 -6 21 9 0 9 2 -1 6
-10 4 -10 8 -1 19 13 16 19 17 38 5z m181 -29 c0 -9 -7 -28 -15 -42 -8 -14
-19 -35 -24 -47 -11 -25 -23 -27 -89 -14 -37 7 -46 6 -62 -11 -10 -11 -21 -15
-24 -10 -3 5 0 15 8 21 8 7 17 24 21 39 8 27 8 27 14 4 3 -13 9 -23 14 -23 4
1 14 1 23 1 13 0 14 3 5 13 -8 11 -6 20 9 37 15 17 20 19 20 7 0 -8 -4 -17 -9
-19 -5 -1 -3 -12 4 -22 12 -16 17 -17 31 -5 9 7 25 33 35 57 18 42 39 49 39
14z m-218 -94 c-7 -7 -12 -8 -12 -2 0 14 12 26 19 19 2 -3 -1 -11 -7 -17z"/>
<path d="M1341 634 c0 -11 3 -14 6 -6 3 7 2 16 -1 19 -3 4 -6 -2 -5 -13z"/>
<path d="M1046 937 c3 -10 9 -15 12 -12 3 3 0 11 -7 18 -10 9 -11 8 -5 -6z"/>
<path d="M1175 939 c-4 -6 -5 -12 -2 -15 2 -3 7 2 10 11 7 17 1 20 -8 4z"/>
<path d="M278 641 c17 -15 32 -29 32 -32 0 -2 -19 -3 -42 -1 -41 3 -42 3 -18
-10 21 -11 25 -21 25 -58 0 -25 -5 -51 -12 -58 -19 -20 -16 -39 9 -56 24 -17
51 -5 42 18 -3 8 1 16 10 19 12 5 13 0 5 -26 -8 -30 -7 -31 7 -12 14 19 15 19
20 -3 4 -12 10 -20 13 -17 13 7 9 -29 -4 -45 -7 -8 -18 -26 -24 -40 -10 -20
-5 -17 23 12 32 33 37 35 46 20 9 -14 10 -11 7 16 -3 26 0 32 15 32 10 0 18 5
18 11 0 5 -5 7 -12 3 -6 -4 -8 -3 -5 4 4 5 16 8 27 5 23 -6 27 12 5 21 -11 4
-13 11 -5 31 8 22 7 25 -18 31 -15 4 -39 14 -54 22 -25 15 -27 14 -50 -13 -14
-16 -30 -25 -35 -22 -13 8 -6 42 13 58 8 7 11 22 8 42 -9 55 -25 77 -53 77
l-26 -1 33 -28z"/>
<path d="M170 626 c0 -8 51 -13 56 -5 3 5 -9 9 -25 9 -17 0 -31 -2 -31 -4z"/>
<path d="M180 590 c-23 -7 -23 -8 -3 -9 12 -1 25 4 28 9 3 6 5 10 3 9 -2 -1
-14 -5 -28 -9z"/>
<path d="M220 579 c0 -5 5 -7 10 -4 6 3 10 8 10 11 0 2 -4 4 -10 4 -5 0 -10
-5 -10 -11z"/>
<path d="M235 566 c-11 -6 -23 -15 -26 -19 -3 -4 -16 -9 -27 -10 -32 -2 -27
-27 6 -28 15 0 22 -3 15 -5 -14 -6 -2 -56 16 -62 10 -3 11 0 2 17 -13 23 -1
56 27 77 8 6 13 17 11 26 -3 12 -8 13 -24 4z"/>
<path d="M243 398 c-27 -13 -31 -30 -5 -21 19 8 48 33 35 32 -4 0 -18 -5 -30
-11z"/>
<path d="M440 370 c-1 -8 -2 -20 -1 -26 1 -6 -6 -17 -14 -24 -19 -16 -19 -27
0 -27 8 0 12 4 9 9 -3 4 -1 8 4 8 15 0 20 22 11 50 -4 14 -8 18 -9 10z"/>
<path d="M312 329 c-7 -10 -8 -19 -3 -19 13 0 33 28 23 33 -4 3 -13 -3 -20
-14z"/>
<path d="M678 113 c6 -2 18 -2 25 0 6 3 1 5 -13 5 -14 0 -19 -2 -12 -5z"/>
</g>
</svg>
